<?xml version="1.0" encoding="utf-8"?>
<!-- Generator: Adobe Illustrator 24.0.0, SVG Export Plug-In . SVG Version: 6.00 Build 0)  -->
<svg version="1.1" id="Layer_1" xmlns="http://www.w3.org/2000/svg" xmlns:xlink="http://www.w3.org/1999/xlink" x="0px" y="0px"
	 viewBox="0 0 101.5 365.9" style="enable-background:new 0 0 101.5 365.9;" xml:space="preserve">
<style type="text/css">
	.st0{fill:#FFFFFF;}
</style>
<g>
	<path class="st0" d="M29,35.3c0,0-10.4,15-11.9,16.3c0,0,13.8,35.4,13.8,74.6c0,39.1-0.3,139.6-0.3,139.6l3,9.2l2.7-9.2
		c0,0,0-119.3,0-143C36.4,99.1,34.2,48.8,29,35.3L29,35.3z M42,146.4l0.1,119.3l2.9,9.2l2.8-9.2L47.7,0C46,10.5,34.2,28.2,34.2,28.2
		C43,53.1,42,146.4,42,146.4L42,146.4z M12.6,56.7c0,0-12,13.4-12.6,14.2c1.7,2.9,19.2,34.2,19.2,72.2v122.6l3.1,9.2l2.6-9.2
		c0,0,0.3-128.2,0.1-136.5C25,120.8,23.7,85.8,12.6,56.7L12.6,56.7z M67.3,28.2c0,0-11.8-17.7-13.6-28.2l-0.1,265.7l2.8,9.2l2.9-9.2
		l0.1-119.3C59.4,146.4,58.4,53.1,67.3,28.2L67.3,28.2z M88.8,56.7c-11.1,29.1-12.3,64.1-12.4,72.5s0.1,136.5,0.1,136.5l2.6,9.2
		l3.1-9.2V143.1c0-38,17.5-69.3,19.2-72.2C100.8,70.1,88.8,56.7,88.8,56.7L88.8,56.7z M72.4,35.3C67.2,48.8,65,99.1,65,122.7
		c0,23.7,0,143,0,143l2.7,9.2l3-9.2c0,0-0.2-100.5-0.2-139.6s13.8-74.6,13.8-74.6C82.9,50.2,72.5,35.2,72.4,35.3L72.4,35.3z"/>
	<path class="st0" d="M94.6,310.7c0,1.4-0.5,3.2-1.6,5.1c-0.5,0.9-1.6,1.7-3.5,2.3l-1.1,0.4c-0.3,0.1-0.4,0-0.4-0.2c0,0,0-0.1,0-0.2
		c0.2-0.2,0.5-0.5,0.9-0.9l1.3-1.1c1.4-1.2,2.1-1.9,2.1-2.3c0-0.9-0.6-1.8-1.7-2.7c-0.3-0.2-0.5-0.4-0.5-0.5l0.7-1.6l0.9-2
		c0.1-0.2,0.2-0.3,0.3-0.4c0,0,0,0,0-0.1l0.9,0.8c0.6,0.5,0.9,0.9,1.2,1.3C94.5,309.3,94.7,309.9,94.6,310.7L94.6,310.7z"/>
	<path class="st0" d="M86.9,303.2c0-0.1,0.2-0.3,0.4-0.6c0,0,0.1-0.1,0.2-0.2c0.1,0.1,0.1,0.2,0.1,0.3l-0.2,1.4l-0.2,2.3l-0.5,3.6
		c-0.2,1.5-0.5,2.7-1,3.7l-0.9,1.9c-0.6,1.2-1,1.7-1.4,1.7l-0.1-0.3c0.8-2.9,1.4-5.2,1.6-7l0.3-2.6l0.4-1.3L86.9,303.2L86.9,303.2z"
		/>
	<path class="st0" d="M80.5,304.6c0.4-0.2,0.6-0.6,0.6-1.1V303c0-0.2,0-0.4,0-0.6v-0.8c0.2-0.6,0.5-1.2,0.9-1.9l0.7-1.2
		c0,0,0.1-0.1,0.2-0.2c0,0,0.1,0.2,0.1,0.8v1c0,0.4,0,0.9-0.1,1.6s-0.3,1.5-0.8,2.4s-1,1.6-1.5,2.1L80.5,304.6L80.5,304.6z"/>
	<path class="st0" d="M84.4,293.7c0.1,0.5-0.1,1.1-0.5,1.9c-0.5,0.9-0.9,1.4-1.4,1.4c-0.3-0.2-0.7-0.6-1.3-1
		c-0.6-0.5-0.9-0.7-0.9-0.9l0.1-0.2c0.2-0.4,0.5-1,0.9-1.9c0.1-0.2,0.4-0.7,0.8-1.4l0.2-0.2c0.1,0.1,0.3,0.2,0.6,0.4
		c0.5,0.4,0.8,0.7,0.9,0.8C84.1,292.9,84.3,293.3,84.4,293.7L84.4,293.7z"/>
	<path class="st0" d="M79.2,307.2c-0.5,0.4-0.9,0.7-1.3,0.9l-0.7,0.3l-0.8,0.7l-1.2,0.7c-0.1,0.1-0.4,0.3-0.8,0.8
		c-0.6,0.7-1.2,1-1.6,1c0,0-0.4-0.1-0.9-0.4c-0.2-0.1-0.4-0.1-0.6-0.1l-4-3.1l3.1,0.7c0.5,0.1,0.9,0.2,1.2,0.3
		c0.8,0.2,1.4,0.4,1.7,0.4c0.3,0,0.8-0.4,1.4-1.2c0.4-0.5,0.6-0.8,0.8-1c0.1,0,0.2-0.1,0.4,0c0.1,0,0.2,0.1,0.3,0.1h0.3
		c0.2,0,0.4-0.2,0.5-0.3c0.5-0.7,0.8-1,0.9-1.1c0.2,0,0.5,0.1,0.7,0.2c0.1,0,0.4-0.3,0.7-0.7l0.5-0.6c0.1,0,0.3,0,0.5,0.2l0.2-0.1
		v1.6C79.9,306.7,79.5,307,79.2,307.2L79.2,307.2z"/>
	<path class="st0" d="M72,289c0.1,0.5-0.1,1.1-0.5,1.9c-0.5,0.9-0.9,1.4-1.4,1.4c-0.3-0.2-0.7-0.6-1.3-1c-0.6-0.5-0.9-0.7-0.9-0.9
		l0.1-0.2c0.2-0.4,0.5-1,0.9-1.9c0.1-0.2,0.4-0.7,0.8-1.4l0.2-0.2c0.1,0.1,0.3,0.2,0.6,0.4c0.5,0.4,0.8,0.7,0.9,0.8
		C71.7,288.3,71.9,288.6,72,289L72,289z M74,283.7c0.1,0.5-0.1,1.1-0.5,1.9c-0.5,0.9-0.9,1.4-1.4,1.4c-0.1,0-0.5-0.3-1.3-1
		c-0.6-0.5-0.9-0.8-0.9-0.9l0.1-0.2c0.2-0.4,0.4-1,0.9-1.9c0.1-0.2,0.4-0.7,0.8-1.4l0.2-0.2c0.1,0.1,0.3,0.2,0.6,0.4
		c0.5,0.4,0.8,0.7,0.9,0.8C73.8,283,74,283.4,74,283.7L74,283.7z M76.1,288.8c0.1,0.5-0.1,1.1-0.5,1.9c-0.5,0.9-0.9,1.4-1.4,1.4
		c-0.3-0.2-0.7-0.6-1.3-1c-0.6-0.5-0.9-0.7-0.9-0.9l0.1-0.2c0.2-0.4,0.4-1,0.9-1.9c0.1-0.2,0.4-0.7,0.8-1.4l0.2-0.2
		c0.1,0.1,0.3,0.2,0.6,0.4c0.5,0.4,0.8,0.7,0.9,0.8C75.9,288.1,76.1,288.4,76.1,288.8L76.1,288.8z"/>
	<path class="st0" d="M71.4,311c-0.1,0-0.2,0.3-0.4,0.9c0,0.2-0.2,0.6-0.4,1.2c-0.6,1.6-1.1,2.7-1.4,3.2c-0.9,1.4-2,2.1-3.4,2.1
		c-1.9,0-2.9-1.8-2.9-5.3c0-1.4,0.4-4.1,1.1-8.1l0.6-3.3c0.2-1.2,0.4-1.9,0.6-2.2l1.3-2.8c0.1-0.1,0.2-0.1,0.2-0.1s0,0.2,0,0.3
		c0,0.4,0,0.7-0.2,1.1c0,0.2-0.3,2.1-0.9,5.8c-0.3,2.1-0.5,3.4-0.6,4c0.2,0,1.4-1.3,3.7-4l7.2-8.2c0.6-0.7,1.5-1.8,2.9-3.3
		c1.8-2.1,3.3-4.1,4.4-6c0.2-0.4,0.3-0.5,0.4-0.5l0.1,0.3c-0.2,0.6-0.3,1.1-0.4,1.3c-0.8,2.2-3,5.3-6.6,9.5
		c-0.4,0.4-1.1,1.2-2.2,2.4c-0.2,0.2-1.2,1.3-2.8,3.2l-2.4,2.8l-2.2,2.5c1.6,0.5,2.9,1.4,3.7,2.6C71.1,310.6,71.2,310.8,71.4,311
		L71.4,311z M70,311.2c0-1-1.1-1.5-3.3-1.5c-0.5,0-0.9,0-1,0.1c-0.5,0.2-0.8,0.8-0.8,1.6c0,1.6,0.7,2.5,2.1,2.5
		c0.8,0,1.5-0.2,2.1-0.8C69.6,312.6,70,312,70,311.2L70,311.2z"/>
	<path class="st0" d="M78.3,291.2c-1,1.5-1.5,2.3-1.6,2.3c-0.7,0.7-1.3,1.2-1.7,1.7c0.3-0.7,0.6-1.4,1.1-1.9c2-2.2,3.3-3.7,3.7-4.4
		C79.8,288.9,79.3,289.7,78.3,291.2L78.3,291.2z"/>
	<path class="st0" d="M61.9,311.8c0,1.2-0.3,2.5-1,3.8c-1,1.8-2,2.8-3.2,2.8c-1,0-1.4-0.6-1.4-1.8c0-0.4,0.1-0.8,0.2-1.3l0.7-1.4
		l0.6-1.1l-0.3-0.1h-0.1c0-0.1,0-0.4,0.2-0.8l1.4-3.3c0.1-0.3,0.3-0.5,0.5-0.5s0.7,0.2,1.3,0.7C61.5,309.7,61.9,310.6,61.9,311.8
		L61.9,311.8z M60,314.9c0-0.5-0.3-1-1-1.4c-0.2-0.1-0.4-0.2-0.6-0.2c-0.2,0-0.4,0.2-0.7,0.7s-0.4,0.9-0.4,1.1
		c0,0.6,0.4,0.9,1.1,0.9c0.3,0,0.7-0.1,1-0.3C59.8,315.5,59.9,315.2,60,314.9L60,314.9z"/>
	<path class="st0" d="M40.2,318.4c-2.6,0-3.9-1.4-3.9-4.3L38,311c0,0.9,0.2,1.6,0.7,2.3c0.5,0.6,1.1,0.9,2,0.9l1.9-3.1
		c0.9-1.5,1.8-2.2,2.8-2.2c0.3,0,0.6,0,0.9,0.2c0.9,0.3,1.4,0.4,1.6,0.4c0.2,0,0.5-0.1,0.8-0.2c0.1,0.1,0.2,0.2,0.2,0.2
		c-0.1,0.7-0.3,1.2-0.6,1.6c-0.6,0.7-0.9,1.1-1.1,1.2c-0.9,1.5-1.5,2.4-1.7,2.8c-0.7,1-1.5,1.8-2.2,2.3
		C42.3,318.1,41.2,318.5,40.2,318.4L40.2,318.4z M42.7,314.2c0.3-0.1,0.6-0.2,0.9-0.3c1.3-0.6,2.3-1.5,3-2.7
		c-0.1-0.1-0.4-0.2-0.8-0.4c-0.4-0.2-0.7-0.2-0.9-0.2c-0.7,0-1.4,0.5-1.9,1.3l-1.4,2.3L42.7,314.2L42.7,314.2z"/>
	<path class="st0" d="M43.5,326.7c0.1,0.5-0.1,1.1-0.5,1.9c-0.5,0.9-0.9,1.4-1.4,1.4c-0.3-0.2-0.7-0.6-1.3-1s-0.9-0.7-0.9-0.9
		l0.1-0.2c0.2-0.4,0.5-1,0.9-1.9c0.1-0.2,0.4-0.7,0.8-1.4l0.2-0.2c0.1,0.1,0.3,0.2,0.6,0.4c0.5,0.4,0.8,0.7,0.9,0.8
		C43.2,326,43.4,326.4,43.5,326.7L43.5,326.7z"/>
	<path class="st0" d="M38,311c-0.6,2.1-1.2,3.2-1.7,3.2c0-1.8,0.4-5.2,1.2-10c0.2-0.7,0.7-2.1,1.6-3.9l0.2-0.1c0,0.1,0,0.3,0,0.7
		l-0.2,1.1l-0.7,4.9C38.1,308.6,38,310,38,311L38,311z"/>
	<path class="st0" d="M27.4,307.1c0.4-0.3,0.7-0.7,1.1-1.2c0.4-0.7,0.8-1.3,1.3-2s0.9-1.2,1.6-1.7c0.4-0.5,0.7-0.9,1-1.4
		c1.1,1.1,1.6,1.9,1.6,2.5s-0.2,1.1-0.5,1.6c-0.4,0.6-0.8,0.9-1.4,0.9c-0.1,0-0.4,0-0.7-0.1c-0.3-0.1-0.5-0.1-0.7-0.1
		c-0.4,0-0.8,0.2-1.2,0.7c-0.1,0.1-0.4,0.5-0.9,1.2l-1.3,1.4L27.4,307.1L27.4,307.1z"/>
	<path class="st0" d="M27.4,308.7c-0.6,0.6-1.1,0.9-1.6,0.9c-0.2,0-0.5-0.1-0.9-0.2l-1-0.4c-0.2,0-0.5,0.1-1,0.4
		c-1.2,0.7-2.3,2-3.3,3.8c-0.2,0.3-0.4,0.7-0.6,1.3c-0.6,1.5-0.9,2.7-0.9,3.7c0,1.8,0.6,3.2,1.9,4.2c1.2,0.9,2.7,1.4,4.5,1.4
		c1.6,0,3.2-0.5,4.9-1.4c1.7-0.9,3-2,4.1-3.3c1.2-1.5,1.9-2.3,2-2.2v0.1c0,0.6-0.7,1.9-2.1,3.8c-1,1.4-2.1,2.6-3.3,3.7
		c-2.7,2.4-5.2,3.6-7.6,3.6c-2,0-3.6-0.6-4.7-1.9c-1.1-1.2-1.6-2.8-1.6-4.8c0-2.1,0.6-4.4,1.8-7c1.2-2.6,2.6-4.5,4.2-5.7
		c0.7-0.7,1-1,1-1.1c0-0.7-0.4-1-1.1-1l-1,0.2c0,0,0-0.1,0-0.2c0-0.3,0.1-0.6,0.4-0.9c0.9-1,1.9-1.5,3.1-1.5c0.5,0,1.1,0.1,1.5,0.4
		c0.7,0.3,0.9,0.7,0.8,1.2c-0.2,0.6-0.5,1.1-0.9,1.4l-0.1,0.1c0,0,0,0.1,0.2,0.2c0.5,0,0.9-0.1,1.4-0.4c0.1,0.3,0.2,0.6,0.2,0.9
		s0,0.5-0.2,0.8L27.4,308.7z"/>
	<path class="st0" d="M94.1,344.3c-2.2,0-3.3-1.4-3.3-4.3l1.7-3.2c0,1.7,0.4,2.8,1.2,3.1c0.4,0.2,0.8,0.2,1.3,0.2
		c0.2-0.5,0.3-1,0.5-1.4c0.1-0.2,0.3-0.8,0.7-1.6c0.8-1.9,1.9-2.8,3.2-2.8c0.8,0,1.2,0.3,1.4,0.8c0,0.2,0,0.4-0.2,0.6
		c-0.1,0.2-0.3,0.3-0.5,0.3c-0.1,0-0.3,0-0.6-0.1c-0.3-0.1-0.5-0.1-0.7-0.1c-0.5,0-0.9,0.2-1.4,0.7s-0.7,0.9-0.7,1.4
		c0,0.4,0.2,0.7,0.5,1s0.7,0.4,1.1,0.4c0.7,0,1.3-0.5,1.9-1.4c0.7-1.1,1.1-1.6,1.2-1.6c0,0,0.1,0.1,0.1,0.2c0,0.5-0.3,1.4-1,2.5
		C98.5,342.6,96.4,344.4,94.1,344.3L94.1,344.3z"/>
	<path class="st0" d="M88.5,345l1.2-1.9c0.2-0.4,0.5-0.9,0.9-1.6c0.1-0.3,0.2-0.7,0.2-1.2l0.1-1.9c0.1-1.1,0.2-2.4,0.5-4
		c0.1-0.4,0.4-1.1,0.8-2l0.8-1.7c0.1-0.1,0.2-0.2,0.3-0.2c0.1,0,0.1,0.1,0.1,0.3l-0.6,4.2l-0.2,1.8l-0.4,3c-0.3,1.9-0.5,2.9-0.8,2.9
		c-0.1,0-0.3,0.2-0.7,0.6c-0.3,0.4-0.5,0.7-0.5,0.8L88.5,345L88.5,345z"/>
	<path class="st0" d="M85.4,356.3c0-0.2-0.1-0.5-0.5-0.7l-1-0.7c-0.9-0.7-1.4-1.4-1.4-2.2c0-1.3,0.6-2.7,1.9-4.2
		c1.1-1.3,2.3-2.3,3.6-3c0.2-0.2,0.6-0.6,1.2-1.2c0.2-0.2,0.4-0.3,0.5-0.3s0.2,0,0.3,0c0.1,0,0.1,0,0.2,0.1c0,0.1,0.2,0.5,0.7,1
		c0.1,0.2,0.3,0.4,0.6,0.7c0.1,0.2,0.2,0.3,0.2,0.5c0,0.4-0.2,0.8-0.6,1.3s-0.8,0.7-1.2,0.7c-0.1,0-0.2,0-0.5-0.2
		c-0.5-0.2-0.9-0.4-1.2-0.4c-0.7,0-1.3,0.2-1.9,0.5c-1,0.5-1.5,1-1.5,1.6c0,0.2,0.2,0.5,0.5,0.7l1.2,0.9c0.5,0.5,0.8,1.1,0.8,1.7
		c0,0.7-0.2,1.9-0.8,3.5c-1.8,6.1-4.9,9.1-9.2,9.1c-1.6,0-2.8-0.5-3.6-1.4c-0.9-1-1.3-2.3-1.3-3.9c0-2.3,0.6-4.8,1.9-7.5l2.1-4.5
		c0.5-1.2,0.9-1.7,1.1-1.7c0.1,0,0.2,0.2,0.1,0.5c0,0.4-0.1,0.7-0.3,1.1l-1.1,2.4c-0.2,0.5-0.6,1.4-1.2,2.8
		c-0.8,1.9-1.2,3.5-1.2,4.6c0,2.3,1.5,3.5,4.4,3.5c2.2,0,4-0.7,5.4-2.3c1-1.1,1.5-2,1.6-2.8L85.4,356.3z"/>
	<path class="st0" d="M65.9,336.6c-2.2,2.6-4.5,5.3-6.9,7.9c0.3,0,0.6,0,0.8,0c1.7,0,2.5,0.9,2.5,2.6c0,0.7-0.2,1.6-0.5,2.8
		c-1,3.9-2.6,5.8-4.7,5.8c-0.9,0-1.7-0.5-2.2-1.4c-0.4-0.7-0.7-1.6-0.7-2.6c0-0.6,0.2-2.6,0.7-6l1-6.8c0-0.6,0.5-1.9,1.5-4.1
		c0-0.1,0.1-0.2,0.1-0.3c0,0,0,0,0.1,0c0,0,0,0.2,0,0.4c0,0.2,0,0.6,0,1l-0.7,5.7c-0.1,0.9-0.3,2-0.5,3.3c1.5-1.2,3-2.8,4.4-4.5
		c0.9-1.1,2.3-2.8,4.1-4.9c0.7-0.8,1.9-2.4,3.7-4.8l3.9-5.2c0,0.7-0.1,1.5-0.4,2.2C71.6,329.2,69.5,332.2,65.9,336.6L65.9,336.6z
		 M60.8,349.9c0-0.5-0.2-0.9-0.8-1.3c-0.5-0.3-1.1-0.5-1.6-0.4c-0.5,0-0.9,0.2-1.5,0.6c-0.5,0.4-0.8,0.8-0.8,1.2
		c0,0.5,0.2,0.9,0.7,1.2c0.5,0.3,0.9,0.4,1.5,0.4C59.9,351.6,60.8,351.1,60.8,349.9L60.8,349.9z"/>
	<path class="st0" d="M51.7,344.8c0,0.7-0.2,2-0.6,3.6l-0.5,2c-0.5,1.3-0.8,2.1-1.1,2.6c-0.5,0.9-1.2,1.4-2,1.8l-1.4,0.6
		c-0.7,0.3-1.3,0.4-1.9,0.4c-0.1,0-0.2,0-0.2-0.2c-0.1-0.2,0.3-0.7,1.2-1.4c0.3-0.2,0.8-0.6,1.6-1.3c1.1-0.8,1.9-1.8,2.6-3
		c0.2-0.3,0.5-1.2,1.1-2.9l0.5-1.4c0.3-0.8,0.5-1.3,0.7-1.3C51.6,344.5,51.7,344.7,51.7,344.8L51.7,344.8z"/>
	<path class="st0" d="M46.6,343.4c-0.6,2.3-1.4,3.7-2.2,4.1l-1.5,0.8c-0.7,0.3-1.3,1-1.8,2.1l-1.1,2.7c-0.5,0.9-1.2,1.6-1.9,1.9
		c-0.5,0.2-1.3,0.4-2.3,0.6c-0.4,0-0.7,0.1-0.9,0.1c-0.3,0-0.5-0.1-0.7-0.2c0-0.2,0.5-0.6,1.5-1.3c0.2-0.1,0.7-0.5,1.4-0.9
		c0.5-0.3,0.8-0.5,1-0.7c0.8-0.6,1.3-1.1,1.6-1.4c0.3-0.4,0.6-1.1,1-2.1s0.7-1.7,0.9-1.9c0.3-0.5,0.8-0.9,1.5-1.4
		c0.8-0.4,1.4-0.7,1.6-0.9c0.3-0.2,0.7-0.6,1.2-1.3c0.5-0.6,0.7-0.9,0.7-0.9C46.8,342.7,46.8,343,46.6,343.4L46.6,343.4z"/>
	<path class="st0" d="M42.5,361.7c0.1,0.5-0.1,1.1-0.5,1.9c-0.5,0.9-0.9,1.4-1.4,1.4c-0.3-0.2-0.7-0.6-1.3-1
		c-0.6-0.5-0.9-0.7-0.9-0.9l0.1-0.2c0.2-0.4,0.5-1,0.9-1.9c0.1-0.2,0.4-0.7,0.8-1.4l0.2-0.2c0.1,0.1,0.3,0.2,0.6,0.4
		c0.5,0.4,0.8,0.7,0.9,0.8C42.3,360.9,42.5,361.3,42.5,361.7L42.5,361.7z"/>
	<path class="st0" d="M34.4,347.4c0,1.4-0.5,3.2-1.6,5.1c-0.5,0.9-1.6,1.7-3.5,2.3l-1.1,0.4c-0.3,0.1-0.4,0-0.4-0.2c0,0,0-0.1,0-0.2
		c0.2-0.2,0.5-0.5,0.9-0.9l1.3-1.1c1.4-1.2,2.1-1.9,2.1-2.3c0-0.9-0.6-1.8-1.7-2.7c-0.3-0.2-0.5-0.4-0.5-0.5l0.7-1.6l0.9-2
		c0.1-0.2,0.2-0.3,0.3-0.4c0,0,0,0,0-0.1l0.9,0.8c0.6,0.5,0.9,0.9,1.2,1.3C34.3,346,34.4,346.7,34.4,347.4L34.4,347.4z"/>
	<path class="st0" d="M29.1,341.9c-0.1,0.6-0.4,1.4-0.8,2.2l-0.5,1c-0.2,0.3-0.4,0.5-0.6,0.5c-0.3-0.2-0.5-0.3-0.6-0.3
		c-0.8,0-1.8,0.5-3,1.6c-1.4,1.3-2.2,2.3-2.2,2.8c0,0.2,0.1,0.5,0.3,0.7l0.7,0.4c1.1,0.3,1.6,1,1.6,2.2c0,1.3-0.2,2.7-0.7,4.3
		c-0.5,1.6-1.1,2.9-1.8,4c-1.8,2.8-4.1,4.1-6.9,4.1c-1.5,0-2.8-0.5-3.6-1.5c-0.9-1-1.3-2.3-1.3-3.8c0-2.3,0.6-4.8,1.9-7.5l2.1-4.5
		c0.3-0.7,0.5-1,0.7-1s0.3,0.1,0.3,0.4c0,0.2,0,0.3-0.1,0.5c-2.3,4.9-3.4,8.1-3.4,9.7c0,1.2,0.5,2.1,1.4,2.7c0.8,0.5,1.8,0.8,3,0.8
		c2.2,0,4-0.7,5.4-2.3c1.1-1.2,1.7-2.2,1.7-3c0-0.3-0.5-0.6-1.4-0.8c-1.2-0.3-1.8-1-1.8-2.1c0-1.9,1-4,2.9-6.5
		c0.7-0.9,1.4-1.7,2.1-2.3c1.7-1.6,3.1-2.5,4.2-2.6C29,341.5,29.1,341.7,29.1,341.9L29.1,341.9z"/>
	<rect x="65.1" y="349.4" class="st0" width="6.3" height="2.4"/>
</g>
</svg>
