<?xml version="1.0" encoding="utf-8"?>
<!-- Generator: Adobe Illustrator 24.0.0, SVG Export Plug-In . SVG Version: 6.00 Build 0)  -->
<svg version="1.1" id="Layer_1" xmlns="http://www.w3.org/2000/svg" xmlns:xlink="http://www.w3.org/1999/xlink" x="0px" y="0px"
	 viewBox="0 0 400 400" style="enable-background:new 0 0 400 400;" xml:space="preserve">
<style type="text/css">
	.st0{fill:#DCDEEA;}
</style>
<g id="Layer_2_1_">
</g>
<g id="Layer_3">
</g>
<g>
	<path class="st0" d="M366.2,253.3c-13.1-11.5-29-21.4-47.2-29.6c-7.8-3.5-16.9,0-20.4,7.8c-3.5,7.8,0,16.9,7.8,20.4
		c15.4,6.8,28.6,15.1,39.4,24.5c13.2,11.6,20.9,28.5,20.9,46.3v28.6c0,8.5-6.9,15.4-15.4,15.4H48.7c-8.5,0-15.4-6.9-15.4-15.4v-28.6
		c0-17.8,7.6-34.6,20.9-46.3c15.6-13.7,61-45.6,145.9-45.6c63,0,114.2-51.2,114.2-114.2S263,2.4,200,2.4S85.8,53.7,85.8,116.6
		c0,36.8,17.5,69.6,44.6,90.5c-49.6,10.9-80.5,31.9-96.7,46.1c-19.9,17.5-31.3,42.8-31.3,69.5v28.6c0,25.5,20.8,46.3,46.3,46.3
		h302.5c25.5,0,46.3-20.8,46.3-46.3v-28.6C397.6,296.1,386.1,270.8,366.2,253.3L366.2,253.3z M116.6,116.6c0-46,37.4-83.4,83.4-83.4
		s83.4,37.4,83.4,83.4S246,200,200,200S116.6,162.6,116.6,116.6L116.6,116.6z M116.6,116.6"/>
</g>
</svg>
